<?xml version="1.0" encoding="utf-8"?>
<!-- Generator: Adobe Illustrator 26.4.1, SVG Export Plug-In . SVG Version: 6.00 Build 0)  -->
<svg version="1.1" id="Layer_1" xmlns="http://www.w3.org/2000/svg" xmlns:xlink="http://www.w3.org/1999/xlink" x="0px" y="0px"
	 viewBox="0 0 512 512" style="enable-background:new 0 0 512 512;" xml:space="preserve">
<style type="text/css">
	.st0{clip-path:url(#SVGID_00000066488827889334560450000017936642381296115647_);}
	.st1{fill:#ED4F2A;}
	.st2{fill:#0E173F;}
	.st3{fill:#F0E7E7;}
	.st4{fill:#F2EBEC;}
	.st5{fill:#F5EEEE;}
	.st6{fill:#D5492C;}
	.st7{fill:#E14D2B;}
	.st8{fill:#ED512A;}
	.st9{fill:#F59B2F;}
	.st10{fill:#F9AD4B;}
	.st11{fill:#F9A235;}
	.st12{fill:#F38529;}
	.st13{fill:#F06C2A;}
	.st14{fill:#EF5F2A;}
	.st15{fill:#F47A2A;}
	.st16{fill:#F17C2A;}
	.st17{fill:#F69C31;}
	.st18{fill:#F7912A;}
	.st19{fill:#A94F37;}
	.st20{fill:#3A273C;}
	.st21{fill:#2C1F3C;}
	.st22{fill:#F0522D;}
	.st23{fill:#F2F3F3;}
	.st24{fill:#E5EEF2;}
	.st25{fill:#9DD5EC;}
	.st26{fill:#A6D8EC;}
	.st27{fill:#F0502A;}
	.st28{fill:#F0512B;}
	.st29{fill:#34213B;}
	.st30{fill:#F0E9EA;}
	.st31{fill:#0E1840;}
	.st32{fill:#F0512C;stroke:#008AE9;}
</style>
<g>
	<defs>
		<rect id="SVGID_1_" width="512" height="512"/>
	</defs>
	<clipPath id="SVGID_00000130612520396359575780000005449439359204118663_">
		<use xlink:href="#SVGID_1_"  style="overflow:visible;"/>
	</clipPath>
	<g style="clip-path:url(#SVGID_00000130612520396359575780000005449439359204118663_);">
		<path class="st1" d="M288.8,511.7c-21.6,0-43.3,0-65.2-0.4c-6.7-1.7-13.4-3.2-20.1-4.6c-31.7-6.2-60.9-18.6-87.9-36.2
			c-21-13.7-39.4-30.3-55.7-49.5c-16.8-19.9-30.2-41.8-40.2-65.7C11,334.6,2.8,301.3,0.3,278.7c-0.1-0.7-1-16-1-16
			c0-21.7,1-24.5,1-24.5c1.8-6.9,3.7-28.4,4.9-35c6.2-31.8,18.6-61,36.1-88C55,94.1,71.6,75.7,90.8,59.4
			c19.8-16.8,41.7-30.3,65.6-40.3c20.8-8.7,42.2-15,64.7-17.5c0.7-0.1,26.2-2.4,36.7-2.4c7,0,8.1,1.1,30,1.5
			c6.7,1.7,13.6,2.6,20.4,4c31.7,6.2,60.8,18.7,87.9,36.1c19,12.3,35.9,27,50.9,43.9c4.2,4.8,8.6,9.6,12.4,14.7
			c12.3,16.7,23,34.3,31.2,53.5c9.3,21.7,15.9,44,18.9,67.5c0.1,0.8,1.2,1.5,1.9,2.3c0,21.7,0,43.4-0.4,65.3
			c-1.7,6.7-3.2,13.4-4.5,20.2c-6.2,31.8-18.6,61-36.1,88.1c-11.7,18.1-25.6,34.5-41.7,48.9c-5.4,4.8-10.6,9.9-16.4,14.2
			c-16.8,12.4-34.5,23.3-53.8,31.5c-21.7,9.3-44,15.9-67.3,18.9C290.2,509.9,289.5,511.1,288.8,511.7L288.8,511.7z M259.2,7.9
			c-14.6,1.1-29.3,1-43.7,3.4C157.2,21,108,48.3,69.4,93.2C19.2,151.6,0,219.6,11.8,295.7c9.2,59.1,37.3,108.6,82.6,147.5
			c56.1,48.1,121.4,67.3,194.5,58c50.5-6.4,95.2-27,132.5-61.9c66.8-62.5,92.6-139.6,77.3-229.8c-7.8-46.1-28.6-86.4-60.3-120.7
			C390.5,36.9,330.9,10.1,259.2,7.9L259.2,7.9z"/>
		<path class="st2" d="M259.7,7.9c71.1,2.2,130.7,29,178.8,81c31.7,34.3,52.5,74.7,60.3,120.7c15.3,90.2-10.5,167.3-77.3,229.8
			c-37.3,34.9-82,55.5-132.5,61.9c-73.1,9.3-138.5-9.9-194.5-58C49.1,404.3,21,354.8,11.8,295.7C0,219.6,19.2,151.6,69.4,93.2
			C108,48.3,157.2,21,215.6,11.3C229.9,8.9,244.7,9,259.7,7.9z M106.6,375l8.1-1.1c-8.5-2.4-8.9-2.2-15.2,5.3v19
			c6.3-0.9,13-1.8,20.3-2.6c0.5-0.1,0.9-0.2,2.1-0.2c3.1,0,6.1,0,10,0.2c3.7,0.3,7.4,0.7,11.9,1.2l6.2,1.9c0-3.6,0-6.8,0.2-10.9
			c-0.1-2.7-0.1-5.4,0-9c-0.1-2.7-0.1-5.4,0-9c-0.1-3-0.1-6.1,0-10v-9.3c-2.8,0.3-5,0.5-7.4,0.7c0,0-0.2,0-0.6-0.4
			c-0.1-0.1-0.3-0.3,0-0.9l1.8-3.1c-6.1,2.8-8.6,6.2-8.6,11.6c0,10.5,0,20.9,0,31.4c0,2.1,0.6,4.7-3.2,3.9l0-0.8
			c-0.1-2.7-0.1-5.4,0-9c-0.1-2.7-0.1-5.4,0-9v-11.1c-2.6,0.2-4.8,0.3-7.5,0.4c0,0-0.4,0.1-0.4-0.6c0-0.3,0-0.5,0.3-1.3l1.4-1.7
			c-0.7-0.2-1.7-0.7-1.9-0.5c-2.8,3.2-7.3,5.1-6.9,10.7c0.4,6.6,0.1,13.2,0.1,19.9c0,2.2-0.1,4.2-3.1,2.6c-0.1-2.1-0.1-4.2,0-7.1
			v-9.7c-2.6,0.2-4.8,0.4-7.5,0.6c0,0-0.4,0.2-0.5-0.5C106.1,376.1,106.1,375.9,106.6,375L106.6,375z M203.6,257.8l16.8-15.3
			c8,7.6,15.5,14.9,23.2,22c1.3,1.2,3.4,2.3,5.1,2.3c16,0.3,31.9,0.3,47.9,0.4c1,0,2-0.3,3.6-0.6l-51.4-46.9
			c11.7-10.3,23.2-20.5,34.8-30.6c0.9-0.8,2.3-1,3.5-1.2c5.8-0.5,11.5-1.1,17.3-1.3c1.5-0.1,3.2,0.6,4.6,1.3c4.1,2.2,7.8,5.4,12,6.7
			c16.5,4.9,32.6,4.6,46.5-3.8c6.4,2.9,11.6,6.5,17.4,7.8c16.6,3.9,43-9,45.9-34.8c2.1-18.9-7.5-35-24.3-38.5
			c-4.5-1-9.4-0.1-14.3-0.1v-7.6h36.8V92.5c-1.5-0.1-3.1-0.4-4.8-0.3c-17.8,0.4-35.4,2.3-52.6,7.5c-3.3,1-6.1,1-9.4-0.5
			c-9-4.2-18.6-4.7-28.3-2.7c-12.9,2.7-22.5,10.2-29.7,21c-15.4-5.7-27.3-4.1-36.9,6.1c-14.8,15.6-15.1,33.2-5.2,52
			c-1.8,0-3.3,0.2-4.8,0c-6.8-1-11.9,1.2-16.6,6.4c-5.2,5.9-11.4,11-17.3,16.5c-7.2-6.9-13.9-13.6-21-19.8c-1.9-1.7-4.8-2.9-7.3-2.9
			c-14.6-0.3-29.3-0.1-43.9-0.1h-5.8l50.4,45.4l-51.8,46c13.4,0,25.3-0.6,37.2,0.2C190.4,267.7,197.5,265.5,203.6,257.8L203.6,257.8
			z M194.5,93.8l11.8-14.7H89.9v91.7c29.8,0,59.2,0,88.6,0c1,0,2.5-0.3,3.1-1c6.9-8.2,13.6-16.5,21.2-25.7h-74.9v-7.4h5.1
			c14.3,0,28.6,0,42.9,0c1.6,0,3.7-0.1,4.6-1.1c6.1-6.9,11.9-14,18.6-22h-71.2v-7.8c14.3,0,28.5-0.8,42.5,0.3
			C181.2,106.9,188.9,103.9,194.5,93.8z M314.2,304.3c2.3,0,4.7-0.1,7,0c2.7,0.1,5.6,0.3,5.6,4.1c0,3.9-2.8,4.4-5.9,4.4l-31.4,0
			h-46.5v57.4h35.9v-26.3c10.1,0,19.8,0.1,29.4,0c11.9-0.1,24,0.3,35.2-5.1c11.7-5.6,18.9-14.6,19.7-27.8c0.9-13.4-4.3-24-15.8-31.2
			c-8.1-5.1-17.2-7.1-26.6-7.2c-13.1-0.1-26.3,0-39.4,0c-5.8,0-12.5-1.7-17.2,0.6c-4.9,2.4-7.8,8.7-11.5,13.4
			c-4.4,5.5-8.7,11.1-13.7,17.6L314.2,304.3L314.2,304.3z M438.4,364.3c-5.4-8.8-13.3-14.5-22.9-17.5c-24.6-7.6-49.5-7.8-74.1-0.4
			c-19.9,6-29.8,20.2-30,40.4c-0.2,22.9,8.9,37.2,29.5,43.8c23.7,7.5,47.9,7.6,71.7,0.6C441.7,422.6,453.4,391.8,438.4,364.3
			L438.4,364.3z"/>
		<path class="st3" d="M194.3,94.1c-5.3,9.8-13,12.8-23.9,12c-14-1.1-28.2-0.3-42.5-0.3v7.8h71.2c-6.7,8-12.5,15.1-18.6,22
			c-0.9,1-3,1-4.6,1.1c-14.3,0.1-28.6,0-42.9,0h-5.1v7.4h74.9c-7.6,9.3-14.3,17.5-21.2,25.7c-0.6,0.7-2,1-3.1,1
			c-29.4,0.1-58.8,0-88.6,0V79.1h116.4C202.1,84.3,198.3,89.1,194.3,94.1z M129.6,167.1c15.1,0,30.3,0,45.4-0.1c1.7,0,4-0.2,5-1.3
			c4.9-5.5,9.4-11.4,14.9-18.1h-70.5v-14.8h5.7c14.6,0,29.3,0,43.9,0c1.5,0,3.6,0.4,4.3-0.4c4.2-4.5,8-9.4,12.8-15.2h-66.7v-15.1
			h5.8c16.1,0,32.3,0,48.4,0c1.6,0,3.9,0.2,4.7-0.8c5.1-5.8,9.9-11.8,15.1-18.3h-105v84.1H129.6z"/>
		<path class="st4" d="M313.7,304.3h-74.8c5-6.5,9.3-12.1,13.7-17.6c3.7-4.7,6.7-11,11.5-13.4c4.7-2.3,11.4-0.6,17.2-0.6
			c13.1,0,26.3-0.1,39.4,0c9.4,0.1,18.5,2.1,26.6,7.2c11.5,7.2,16.7,17.8,15.8,31.2c-0.9,13.2-8,22.2-19.7,27.8
			c-11.2,5.4-23.2,5-35.2,5.1c-9.6,0.1-19.3,0-29.4,0v26.3h-35.9v-57.4h46.5l31.4,0c3,0,5.9-0.5,5.9-4.4c0-3.8-2.9-4-5.6-4.1
			C318.8,304.2,316.5,304.3,313.7,304.3L313.7,304.3z M338.2,279.4c-4.2-0.9-8.4-2.6-12.6-2.7c-19.3-0.5-38.5-0.6-57.8-0.7
			c-1.1,0-2.5,0.3-3.1,1c-6.1,7.5-12.1,15.2-18.7,23.6h6c22.1,0,44.2,0,66.3,0c2.3,0,5.2-0.3,6.8,0.9c2.3,1.7,4.7,4.4,5.1,7
			c0.6,3.4-1.7,6.4-5.5,7.2c-1.9,0.4-3.9,0.5-5.9,0.5c-22.4,0-44.9,0-67.3,0c-1.8,0-3.5,0.2-5.4,0.3v49.8h29.2v-25.7
			c2.2,0,4,0,5.7,0c15.4-0.3,30.9-0.2,46.3-1.1c10.3-0.6,19.8-4.5,26.5-13.1C366.4,310.4,359.3,288.5,338.2,279.4L338.2,279.4z"/>
		<path class="st5" d="M438.6,364.7c14.9,27.1,3.1,58-25.9,66.5c-23.7,7-48,6.9-71.7-0.6c-20.6-6.5-29.7-20.8-29.5-43.8
			c0.1-20.1,10.1-34.4,30-40.4c24.6-7.4,49.5-7.1,74.1,0.4C425.1,349.8,433,355.6,438.6,364.7L438.6,364.7z M343.4,427.7
			c23.8,6.2,47.7,6.8,71.1-0.9c18-5.9,26.3-18.8,26.3-38.4c0-19.5-8.4-32.6-26.5-38.3c-24.2-7.6-48.8-7.5-73,0
			c-11.6,3.6-20.3,11.1-24.3,23.2C309.1,397.6,318.9,418.3,343.4,427.7L343.4,427.7z"/>
		<path class="st6" d="M143.1,396.6c-3.7-0.3-7.4-0.7-11.4-1.3c0-0.8,0.2-1.2,0.5-1.7c3.7,0.8,3.1-1.8,3.1-3.9c0-10.5,0-20.9,0-31.4
			c0-5.4,2.5-8.8,8.6-11.6c-0.8,1.3-1.3,2.2-2.2,3.5c-0.6,0.7-0.8,1-1.2,1.3c-0.5,0.2-0.7,0.4-1.1,0.8c-0.4,0.4-0.6,0.7-1,1.2
			c-0.6,1.1-1.1,2.1-1.1,3c-0.1,11.8,0,23.5,0,35.3c0,0.8,0.5,1.6,0.8,2.4l1.3-0.1c0-13.3,0-26.7,0.2-40.1c0.5-0.3,0.7-0.5,1-0.9
			c0.4-0.4,0.5-0.6,0.8-1.1c0.5-0.4,0.7-0.6,1-0.9c0,0,0.2,0,0.4,0.5c0.2,3.6,0.3,6.8,0.3,10.5c0,3.1,0,5.8,0,9
			c0.2,3.2,0.5,6,0.6,9.1c-0.4,3.1-0.5,5.8-0.7,9C143,391.9,143.1,394.3,143.1,396.6L143.1,396.6z"/>
		<path class="st7" d="M106.1,377c0,0,0.4-0.2,0.7,0.3c0.3,2.4,0.3,4.5,0.3,6.9c0,2.1-0.1,3.7,0,5.3c0.3,5.1,1.6,5.9,6.9,4.4
			c3.1,0.8,3.2-1.2,3.2-3.4c0-6.6,0.3-13.3-0.1-19.9c-0.4-5.6,4.1-7.5,6.9-10.7c0.2-0.2,1.3,0.3,1.9,0.5c-0.5,0.6-1,1.1-2,2.1
			c-0.6,1-0.8,1.6-0.9,2.1c0,0,0,0-0.3-0.1c-0.5,0.3-0.6,0.7-0.7,1.1c0,0,0,0-0.3-0.1c-0.5,0.3-0.6,0.7-0.7,1.1c0,0,0.1,0-0.4-0.1
			c-0.8,1.5-1.5,3-1.5,4.5c-0.1,7.5,0,14.9,0,22.7c0,0.7-0.1,1.2-0.1,1.6l-19.6,2.8c0-6.2,0-12.6,0.5-19.2c0.8,0.1,1,0.4,1.2,1.2
			c-0.1,5.7-0.1,10.8-0.1,16l2,0c0-5.8,0-11.7,0-17.5c0,0,0,0,0.4,0.2c0.5-0.3,0.6-0.7,0.6-1.2c0,0,0,0,0.2,0.3
			C105.1,377.8,105.6,377.4,106.1,377L106.1,377z"/>
		<path class="st8" d="M132.1,393.6c-0.2,0.4-0.5,0.9-0.9,1.5c-3.2,0.2-6.3,0.3-9.7-0.1c-0.4-0.7-0.5-1.1-0.5-2
			c0.1-9.1,0.1-17.7,0.1-26.4c0,0-0.1,0,0.3,0c0.5-0.3,0.6-0.7,0.7-1c0,0-0.1,0,0.3,0c0.5-0.3,0.6-0.7,0.7-1c0,0,0,0,0.2,0.1
			c0.6,0,0.8-0.2,0.9-0.6c0,0,0.4-0.1,0.6,0.3c0.3,4,0.3,7.6,0.3,11.6c0,3.1,0,5.8,0,9C125.1,393.7,125.1,393.7,132.1,393.6
			C132.1,393.7,132.1,393.6,132.1,393.6L132.1,393.6z"/>
		<path class="st9" d="M125.1,375.7c0-3.6,0-7.2-0.1-11.2c2.2-0.6,4.4-0.7,7-0.9c0,4.1,0,7.6-0.5,11.6
			C129.1,375.7,127.1,375.7,125.1,375.7L125.1,375.7z"/>
		<path class="st10" d="M143.2,361.7c-0.1-3.2-0.1-6.4-0.2-10c2.2-0.6,4.4-0.9,7.2-1.2c0,3.5,0,6.4-0.5,9.8
			C147.2,361.1,145.2,361.4,143.2,361.7L143.2,361.7z"/>
		<path class="st11" d="M143.2,362.1c2.1-0.7,4.1-1,6.4-1.3c0.4,3,0.5,6,0,9.5c-2.5,0.4-4.4,0.4-6.4,0.4
			C143.2,368,143.1,365.3,143.2,362.1z"/>
		<path class="st12" d="M125.1,376.2c2-0.4,4-0.4,6.4-0.4c0.5,2.7,0.5,5.4,0.1,8.6c-2.5,0.4-4.5,0.4-6.4,0.4
			C125.1,382,125.1,379.3,125.1,376.2L125.1,376.2z"/>
		<path class="st13" d="M125.1,385.1c2-0.4,4-0.4,6.4-0.4c0.5,2.7,0.5,5.4,0.6,8.5C125.1,393.7,125.1,393.7,125.1,385.1z"/>
		<path class="st14" d="M143.4,396.7c-0.4-2.5-0.4-4.8,0-7.6c2.5-0.4,4.5-0.4,6.5-0.4v10C147.7,398,145.8,397.4,143.4,396.7
			L143.4,396.7z"/>
		<path class="st15" d="M150.1,388.3c-2.1,0.4-4.1,0.4-6.6,0.4c-0.3-2.7-0.1-5.5,0.7-8.6c2.3-0.4,4.1-0.4,5.8-0.4
			C150,382.4,150.1,385.1,150.1,388.3L150.1,388.3z"/>
		<path class="st16" d="M114,393.5c-5.3,1.9-6.6,1.1-6.9-4c-0.1-1.8,0-3.5,0.3-5.2c2.4,0.6,4.4,1.5,6.4,2.5
			C113.9,388.8,114,390.9,114,393.5z"/>
		<path class="st17" d="M114,386.3c-2.1-0.6-4.1-1.5-6.5-2.6c-0.4-2.1-0.4-4.1-0.4-6.5c2.2-0.6,4.4-0.8,7-1
			C114,379.8,114,382.9,114,386.3z"/>
		<path class="st18" d="M150.1,379.3c-1.8,0.5-3.5,0.5-5.7,0.5c-0.7-2.7-1-5.5-1.2-8.7c2-0.4,4-0.4,6.4-0.4
			C150,373.4,150.1,376.1,150.1,379.3L150.1,379.3z"/>
		<path class="st19" d="M101.2,379.8c-0.3-0.4-0.6-0.7-0.9-1c5.4-7.1,5.9-7.2,14.4-4.8c-3.5,0.5-5.8,0.8-8.6,1.5
			c-0.7,0.7-1.3,1.5-1.9,2.3c0,0,0-0.1-0.3,0c-0.4,0.4-0.6,0.7-0.7,1c0,0,0-0.1-0.3,0C102.2,379.2,101.7,379.5,101.2,379.8
			L101.2,379.8z"/>
		<path class="st6" d="M121,393.6c0,0.4,0.1,0.8,0.1,1.5c-0.4,0.4-0.9,0.5-1.7,0.5c-0.3-0.5-0.3-0.9,0-1.6
			C120.2,393.6,120.6,393.6,121,393.6z"/>
		<path class="st20" d="M104.4,378c0.2-0.9,0.7-1.5,1.4-2.3c0.3,0.1,0.3,0.3,0.3,0.9C105.6,377.4,105.1,377.8,104.4,378z"/>
		<path class="st21" d="M124.2,363.9c-0.1,0.7-0.3,0.9-0.8,1c-0.1-0.7,0-1.2,0.4-2C124.1,363,124.1,363.2,124.2,363.9L124.2,363.9z"
			/>
		<path class="st22" d="M213.1,193.5c3.2,3.6,6.2,7,9.4,10.7c8.4-8,15.7-15.2,23.4-22c2-1.8,5.1-3,7.7-3.2
			c9.1-0.4,18.2-0.1,27.8-0.1l-1.8,4.2l4.4,0.8l-40.9,35.8l48.5,44c-7.5,0-13.7,0-19.9,0c-6.5,0-13-0.4-19.4-0.1
			c-3.7,0.2-6.2-1.2-8.7-3.7c-7.6-7.5-15.3-14.7-23.2-22.3c-8.3,7.6-16.4,15.3-24.8,22.6c-2.1,1.8-5.4,3.1-8.3,3.2
			c-11,0.4-22.1,0.1-33.1-0.8l47.1-41.6l-46.9-42.1c11.9,0,22.3,0.5,32.6-0.1c7.7-0.5,13.9,1.2,18.7,7.5
			C207.7,188.9,210.5,191,213.1,193.5L213.1,193.5z"/>
		<path class="st23" d="M280.2,152.4c-0.1,0.3-0.4,0.5-0.7,0.7C279.6,152.8,279.8,152.5,280.2,152.4z M297.7,151.2
			c-0.1-0.3-0.1-0.6,0-1C297.8,150.6,297.8,150.9,297.7,151.2z"/>
		<path class="st24" d="M323,126.1c-0.3-0.1-0.5-0.4-0.7-0.7C322.6,125.6,322.9,125.8,323,126.1z"/>
		<path class="st25" d="M301.9,120.5c-0.2,0-0.2-0.5-0.1-0.7c0.4,0,0.7,0.2,1.1,0.4C302.5,120.4,302.2,120.5,301.9,120.5z"/>
		<path class="st26" d="M306.5,118.8c0.2,0.2,0.3,0.7,0.3,1.4C306.6,120,306.5,119.5,306.5,118.8z"/>
		<path class="st27" d="M129.1,167.1H93.5V83h105c-5.3,6.5-10,12.5-15.1,18.3c-0.8,0.9-3.1,0.8-4.7,0.8c-16.1,0.1-32.3,0-48.4,0
			h-5.8v15.1h66.7c-4.9,5.8-8.7,10.7-12.8,15.2c-0.7,0.8-2.9,0.4-4.3,0.4c-14.6,0-29.3,0-43.9,0h-5.7v14.8h70.5
			c-5.5,6.7-10,12.6-14.9,18.1c-0.9,1.1-3.3,1.2-5,1.3C159.8,167.1,144.7,167.1,129.1,167.1L129.1,167.1z"/>
		<path class="st28" d="M338.6,279.5c20.7,9,27.7,30.9,15.2,46.9c-6.7,8.6-16.2,12.4-26.5,13.1c-15.4,0.9-30.9,0.8-46.3,1.1
			c-1.8,0-3.6,0-5.7,0v25.7h-29.2v-49.8c1.9-0.1,3.6-0.2,5.4-0.3c22.4,0,44.9,0,67.3,0c2,0,4,0,5.9-0.5c3.8-0.9,6.1-3.9,5.5-7.2
			c-0.4-2.6-2.8-5.4-5.1-7c-1.6-1.2-4.5-0.9-6.8-0.9c-22.1-0.1-44.2,0-66.3,0h-6c6.6-8.4,12.6-16.1,18.7-23.6c0.6-0.7,2.1-1,3.1-1
			c19.3,0.1,38.5,0.2,57.8,0.7C329.9,276.8,334,278.5,338.6,279.5L338.6,279.5z M343,427.6c-24.1-9.4-33.9-30.1-26-54.4
			c3.9-12.1,12.6-19.6,24.3-23.2c24.2-7.5,48.8-7.6,73,0c18.1,5.7,26.5,18.8,26.5,38.3c0,19.6-8.3,32.5-26.3,38.4
			C391,434.5,367.2,433.9,343,427.6L343,427.6z M370.3,407.4c9.7-0.5,19.6-0.4,29.2-1.8c8.6-1.2,12-6.8,12-16.8
			c0.1-10.5-3.1-15.3-11.8-17.6c-1.9-0.5-3.9-1-5.9-1c-13,0.3-26.1,0.4-39.1,1.5c-6.3,0.5-9.7,5.4-10.3,11.7c-0.3,3.1-0.4,6.3,0,9.4
			c0.8,7.3,4.2,11.2,11.2,12.8C360.1,406.6,364.8,406.8,370.3,407.4L370.3,407.4z"/>
		<path class="st29" d="M139.5,354.1v40l-1.3,0.1c-0.3-0.8-0.8-1.6-0.8-2.4c-0.1-11.8-0.1-23.5,0-35.3c0-0.9,0.5-1.8,1.3-2.8
			C139.2,353.9,139.3,354,139.5,354.1z"/>
		<path class="st2" d="M142.3,351c-0.1,0.5-0.3,0.7-0.9,0.9c-0.3,0-0.7-0.3-0.7-0.3c0.2-0.3,0.4-0.6,0.8-1
			C141.9,350.5,142,350.7,142.3,351z"/>
		<path class="st29" d="M139.6,352.3c0.2-0.3,0.4-0.5,0.9-0.7c0.2-0.1,0.6,0.2,0.7,0.4c0,0.5-0.1,0.8-0.7,0.9
			C139.9,352.6,139.7,352.4,139.6,352.3z M140.3,353c0,0.5-0.2,0.7-0.6,1c-0.3,0-0.4-0.1-0.8-0.5c-0.1-0.5,0.1-0.8,0.5-1.1
			C139.7,352.4,139.9,352.6,140.3,353z"/>
		<path class="st21" d="M121,393.1c-0.4,0.5-0.8,0.5-1.6,0.5c-0.3-7.5-0.4-15-0.3-22.5c0-1.5,0.7-3,1.5-4.5
			C121.1,375.4,121.1,384,121,393.1z"/>
		<path class="st20" d="M101.2,380.3c0.5-0.8,1-1.1,1.7-1.5c0.3,5.8,0.3,11.6,0.3,17.5l-2,0C101.1,391.1,101.1,385.9,101.2,380.3z
			 M103.5,378.9c-0.2-0.4,0-0.7,0.4-1.1C104.1,378.2,104,378.6,103.5,378.9z"/>
		<path class="st21" d="M121.8,365.6c0.2,0.4,0.1,0.8-0.4,1.1C121.2,366.4,121.3,366,121.8,365.6z M122.8,364.6
			c0.2,0.4,0.1,0.8-0.4,1.1C122.2,365.4,122.3,364.9,122.8,364.6z"/>
		<path class="st30" d="M369.9,407.4c-5.1-0.5-9.8-0.7-14.3-1.7c-7-1.6-10.4-5.5-11.2-12.8c-0.3-3.1-0.2-6.3,0-9.4
			c0.6-6.3,4.1-11.2,10.3-11.7c13-1.1,26.1-1.1,39.1-1.5c1.9-0.1,3.9,0.5,5.9,1c8.7,2.3,11.9,7.1,11.8,17.6
			c-0.1,9.9-3.4,15.6-12,16.8C389.9,407,380.1,406.8,369.9,407.4L369.9,407.4z M364.5,403.7c3.3,0.1,6.6,0.5,9.9,0.4
			c7.8-0.3,15.6-0.5,23.3-1.5c7.1-0.9,9.7-4.3,10.1-11.4c0.1-2.3,0-4.6-0.2-7c-0.3-5.2-3.2-8.5-8.1-9.4c-14.5-2.5-29-2.5-43.5,0
			c-4,0.7-6.8,3.2-7.9,7.3c-3.4,11.9,1,19,13.1,21.1C362,403.5,362.8,403.5,364.5,403.7L364.5,403.7z"/>
		<path class="st31" d="M364.1,403.6c-1.3-0.1-2.1-0.2-2.9-0.3c-12-2.1-16.4-9.2-13.1-21.1c1.2-4.1,3.9-6.6,7.9-7.3
			c14.5-2.5,29-2.5,43.5,0c4.9,0.8,7.8,4.2,8.1,9.4c0.1,2.3,0.3,4.7,0.2,7c-0.5,7.1-3,10.4-10.1,11.4c-7.7,1-15.5,1.2-23.3,1.5
			C371.2,404.2,367.9,403.8,364.1,403.6L364.1,403.6z"/>
	</g>
</g>
<path class="st32" d="M310.7,129.3c1.8,3.3,3.5,6.2,5.4,9.5c23.3-29.7,56.7-37.5,91.9-41.2c4.9-0.5,9.8-0.6,14.7-0.9
	c1-0.1,2.1,0.1,3.5,0.2V115c-3.1,0-5.8-0.1-8.6,0c-8.8,0.3-17.5,0.8-26.3,0.9c-3.8,0.1-4.6,1.6-4.6,5c0.1,20.3,0.1,40.5,0.1,61
	c-1.1,0.2-2.1,0.5-3.1,0.5c-16.9,0-33.7,0.1-50.6-0.1c-1.8,0-4.1-1.5-5.2-2.9c-2.3-3-3.8-6.5-5.8-9.7c-2.2-3.6-5.3-3.5-7.6,0.1
	c-0.1,0.1-0.2,0.3-0.3,0.4c-3.4,11.5-12,13.9-22.9,12.4c-3.4-0.4-6.9-0.1-11.4-0.1l21.4-28.2l-21.4-28.9c9.9,0,18.9-0.1,27.8,0.1
	C308.6,125.7,309.5,127.8,310.7,129.3L310.7,129.3z M361.9,141.1c0-4.1,0.2-8.2-0.1-12.2c-0.1-1.7-1.5-3.4-2.3-5.1
	c-1.6,0.8-3.7,1.1-4.8,2.4c-6.4,7.4-12.7,15-18.7,22.7c-0.9,1.2-0.8,4.4,0.1,5.6c5.5,7,11.3,13.9,17.4,20.5c1.3,1.4,4,2.3,5.9,2
	c1.1-0.1,2.4-3.1,2.4-4.8C362.1,162.2,361.9,152.2,361.9,141.1L361.9,141.1z"/>
</svg>
